<svg width="1024" height="963" viewBox="0 0 1024 963" fill="none" xmlns="http://www.w3.org/2000/svg">
<rect x="-90" y="837" width="375" height="126" rx="16" fill="#D9D9D9"/>
<rect x="-90" y="502" width="375" height="126" rx="16" fill="#D9D9D9"/>
<rect x="-90" y="167" width="375" height="126" rx="16" fill="#D9D9D9"/>
<rect x="-277" y="670" width="375" height="126" rx="16" fill="#D9D9D9"/>
<rect x="-277" y="335" width="375" height="126" rx="16" fill="#D9D9D9"/>
<rect x="-277" width="375" height="126" rx="16" fill="#D9D9D9"/>
<rect x="323" y="837" width="375" height="126" rx="16" fill="#D9D9D9"/>
<rect x="323" y="502" width="375" height="126" rx="16" fill="#D9D9D9"/>
<rect x="323" y="167" width="375" height="126" rx="16" fill="#D9D9D9"/>
<rect x="136" y="670" width="375" height="126" rx="16" fill="#D9D9D9"/>
<rect x="136" y="335" width="375" height="126" rx="16" fill="#D9D9D9"/>
<rect x="136" width="375" height="126" rx="16" fill="#D9D9D9"/>
<rect x="737" y="837" width="374" height="126" rx="16" fill="#D9D9D9"/>
<rect x="737" y="502" width="374" height="126" rx="16" fill="#D9D9D9"/>
<rect x="737" y="167" width="374" height="126" rx="16" fill="#D9D9D9"/>
<rect x="549" y="670" width="375" height="126" rx="16" fill="#D9D9D9"/>
<rect x="549" y="335" width="375" height="126" rx="16" fill="#D9D9D9"/>
<rect x="549" width="375" height="126" rx="16" fill="#D9D9D9"/>
<rect x="962" y="670" width="375" height="126" rx="16" fill="#D9D9D9"/>
<rect x="962" y="335" width="375" height="126" rx="16" fill="#D9D9D9"/>
<rect x="962" width="375" height="126" rx="16" fill="#D9D9D9"/>
</svg>
